<?xml version="1.0" encoding="UTF-8" standalone="no"?>
<!-- Uploaded to: SVG Repo, www.svgrepo.com, Transformed by: SVG Repo Mixer Tools -->

<svg
   fill="#000000"
   width="256px"
   height="256px"
   viewBox="0 0 24 24"
   id="translate"
   data-name="Line Color"
   class="icon line-color"
   version="1.1"
   sodipodi:docname="2.svg"
   xml:space="preserve"
   inkscape:version="1.2.2 (732a01da63, 2022-12-09)"
   xmlns:inkscape="http://www.inkscape.org/namespaces/inkscape"
   xmlns:sodipodi="http://sodipodi.sourceforge.net/DTD/sodipodi-0.dtd"
   xmlns="http://www.w3.org/2000/svg"
   xmlns:svg="http://www.w3.org/2000/svg"><defs
     id="defs14663" /><sodipodi:namedview
     id="namedview14661"
     pagecolor="#ffffff"
     bordercolor="#000000"
     borderopacity="0.25"
     inkscape:showpageshadow="2"
     inkscape:pageopacity="0.0"
     inkscape:pagecheckerboard="0"
     inkscape:deskcolor="#d1d1d1"
     showgrid="false"
     inkscape:zoom="1.0253906"
     inkscape:cx="-25.35619"
     inkscape:cy="167.74095"
     inkscape:window-width="1366"
     inkscape:window-height="705"
     inkscape:window-x="-8"
     inkscape:window-y="116"
     inkscape:window-maximized="1"
     inkscape:current-layer="translate" /><g
     id="SVGRepo_bgCarrier"
     stroke-width="0" /><g
     id="SVGRepo_tracerCarrier"
     stroke-linecap="round"
     stroke-linejoin="round" /><g
     id="SVGRepo_iconCarrier"><path
       id="primary"
       d="M21,4V16a1,1,0,0,1-1,1H16l-4,4L8,17H4a1,1,0,0,1-1-1V4A1,1,0,0,1,4,3H20A1,1,0,0,1,21,4Z"
       style="fill: none; stroke: #000000; stroke-linecap: round; stroke-linejoin: round; stroke-width:1.56;" /><g
       style="fill:#2ca9bc;fill-opacity:1;stroke:#2ca9bc;stroke-width:0.009439;stroke-opacity:1"
       id="g16260"
       transform="matrix(0.01086035,0,0,0.01086035,6.7808472,4.9489746)"><g
         id="SVGRepo_bgCarrier-4"
         stroke-width="0"
         style="fill:#2ca9bc;fill-opacity:1;stroke:#2ca9bc;stroke-opacity:1" /><g
         id="SVGRepo_tracerCarrier-0"
         stroke-linecap="round"
         stroke-linejoin="round"
         style="fill:#2ca9bc;fill-opacity:1;stroke:#2ca9bc;stroke-opacity:1" /><g
         id="SVGRepo_iconCarrier-2"
         style="fill:#2ca9bc;fill-opacity:1;stroke:#2ca9bc;stroke-opacity:1"> <g
   id="g16244"
   style="fill:#2ca9bc;fill-opacity:1;stroke:#2ca9bc;stroke-opacity:1"> <g
   id="g16242"
   style="fill:#2ca9bc;fill-opacity:1;stroke:#2ca9bc;stroke-opacity:1"> <path
   d="M 335.212,913.899 V 874.5 h 51.5 c 16.601,0 30,-13.4 30,-30 v -40 c 0,-16.601 -13.399,-30 -30,-30 h -51.5 v -63.101 c 36.4,-6.6 70.9,-20.399 101.7,-40.8 -36.3,-14.2 -69.7,-35.3 -98.7,-62.899 -17.399,5.5 -36,8.399 -55.3,8.1 -95.2,-1.2 -172.8,-78.7 -174.1,-173.9 -1.3,-93 69.9,-170 160.6,-178.1 15,-33.8 36.3,-64.9 63.2,-91.9 1.399,-1.4 2.8,-2.7 4.1,-4 -16.8,-3.2 -34.1,-4.8 -51.6,-4.8 -73.8,0 -143.2,28.7 -195.4,80.9 -51.2,51.4 -79.8,119.3 -80.8,191.6 -1,74 27.8,145.601 79.8,198.2 40.4,40.8 91.2,67.5 146.5,77.6 v 63.1 h -51.5 c -16.6,0 -30,13.399 -30,30 v 40 c 0,16.6 13.4,30 30,30 h 51.5 v 39.399 c 0,16.601 13.4,30 30,30 h 40 c 16.601,0 30,-13.399 30,-30 z"
   id="path16236"
   style="fill:#2ca9bc;fill-opacity:1;stroke:#2ca9bc;stroke-opacity:1" /> <path
   d="m 452.813,292.3 c -11.801,11.8 -21.101,25.4 -27.7,40.1 22.8,29.7 36.399,66.9 36.399,107.2 0,15.601 -2.1,30.8 -5.899,45.2 25,23.6 57.5,36.6 92.1,36.6 0.5,0 1.101,0 1.601,0 8.1,-26.1 12.3,-53.6 12.3,-81.8 0,-65.4 -22.601,-127.4 -64.101,-176.9 -16.501,6.6 -31.7,16.6 -44.7,29.6 z"
   id="path16238"
   style="fill:#2ca9bc;fill-opacity:1;stroke:#2ca9bc;stroke-opacity:1" /> <path
   d="m 729.313,100 h 34.899 l -64.7,64.7 c -44.399,-30.4 -96.8,-46.8 -151.699,-46.8 -62.9,0 -122.601,21.4 -170.601,60.9 -6.8,5.6 -13.5,11.6 -19.8,18 -20.2,20.2 -36.8,43.1 -49.5,67.9 -19.2,37.5 -29.4,79.2 -29.4,122.5 0,71.899 28,139.5 78.9,190.399 5.2,5.2 10.5,10.101 16,14.7 28.5,24.3 61.4,42.2 96.7,52.8 24.899,7.5 51,11.3 77.7,11.3 71.899,0 139.5,-28 190.399,-78.899 50.8,-50.8 78.9,-118.5 78.9,-190.4 0,-54.9 -16.4,-107.4 -46.8,-151.7 l 64.699,-64.7 v 34.9 c 0,16.6 13.4,30 30,30 h 40 c 16.601,0 30,-13.4 30,-30 V 50 49.9 c 0,-13 -5.3,-25.9 -14.5,-35.2 C 911.311,5.5 898.41,0 885.41,0 c -0.1,0 -0.2,0 -0.3,0 h -155.8 c -16.601,0 -30,13.4 -30,30 v 40 c 0.003,16.6 13.402,30 30.003,30 z m -61.9,406.8 c -32,32 -74.5,49.6 -119.7,49.6 -3.899,0 -7.8,-0.1 -11.7,-0.399 -34.399,-2.3 -66.8,-15 -93.6,-36.4 -5,-4 -9.7,-8.2 -14.3,-12.8 -54.5,-54.5 -64,-137.1 -28.5,-201.4 7.5,-13.6 17,-26.4 28.5,-37.9 13,-13 27.8,-23.7 43.8,-31.7 23.2,-11.7 49.1,-17.9 75.8,-17.9 45.2,0 87.7,17.6 119.7,49.6 66,65.999 66,173.398 0,239.299 z"
   id="path16240"
   style="fill:#2ca9bc;fill-opacity:1;stroke:#2ca9bc;stroke-opacity:1" /> </g> </g> </g></g></g></svg>
